<svg id="Capa_1" enable-background="new 0 0 512 512" height="512" viewBox="0 0 512 512" width="512" xmlns="http://www.w3.org/2000/svg"><g><g><g><path d="m437 451h-362c-24.814 0-45-20.186-45-45v-166.802c0-5.01 2.49-9.683 6.65-12.466 4.16-2.813 9.492-3.311 14.063-1.392 27.861 11.499 83.906 32.153 146.455 41.323 7.383 1.069 12.832 7.397 12.832 14.839v19.498h15c8.291 0 16 6.709 16 15v45h30v-45c0-8.291 7.709-15 16-15h15v-19.497c0-7.441 5.449-13.77 12.832-14.839 62.549-9.17 118.594-29.824 146.455-41.323 4.57-1.904 9.873-1.392 14.063 1.392 4.16 2.783 6.65 7.456 6.65 12.466v166.801c0 24.814-20.186 45-45 45z" fill="#47568c"/></g></g><path d="m482 406v-166.802c0-5.01-2.49-9.683-6.65-12.466-4.189-2.783-9.492-3.296-14.063-1.392-27.861 11.499-83.906 32.153-146.455 41.323-7.383 1.069-12.832 7.397-12.832 14.839v19.498h-15c-8.291 0-16 6.709-16 15v45h-15v90h181c24.814 0 45-20.186 45-45z" fill="#29376d"/><g id="Briefcase_3_"><g><path d="m287 391h-62c-8.291 0-15-6.709-15-15v-60c0-8.291 6.709-15 15-15h62c8.291 0 15 6.709 15 15v60c0 8.291-6.709 15-15 15z" fill="#e6f7ff"/></g></g><path d="m256 391h31c8.291 0 15-6.709 15-15v-60c0-8.291-6.709-15-15-15h-31z" fill="#cef"/><g><g><g><g><path d="m302 281.503v-175.503c0-8.291 6.709-15 15-15h180c8.291 0 15 6.709 15 15v120c0 5.742-3.281 10.972-8.438 13.491-3.922 1.561-86.219 42.485-184.395 56.851-9.295 1.301-17.167-5.871-17.167-14.839z" fill="#47568c"/></g></g></g></g><g><g><path d="m192.832 296.342c-90.277-13.21-156.918-45.912-184.395-56.851-5.156-2.519-8.437-7.749-8.437-13.491v-120c0-8.291 6.709-15 15-15h180c8.291 0 15 6.709 15 15v175.503c0 8.928-7.834 16.146-17.168 14.839z" fill="#61729b"/></g></g><g><path d="m317 331h-122c-8.291 0-15-6.709-15-15v-240c0-8.291 6.709-15 15-15h122c8.291 0 15 6.709 15 15v240c0 8.291-6.709 15-15 15z" fill="#47568c"/></g><path d="m256 331h61c8.291 0 15-6.709 15-15v-240c0-8.291-6.709-15-15-15h-61z" fill="#29376d"/></g></svg>